<svg width="50" height="38" viewBox="0 0 50 38" fill="none" xmlns="http://www.w3.org/2000/svg">
<path d="M50 33.083H0V33.108H50V33.083Z" fill="#EBEBEB"/>
<path d="M44.9897 34.6919H41.6777V34.7169H44.9897V34.6919Z" fill="#EBEBEB"/>
<path d="M33.1219 34.9639H32.2529V34.9889H33.1219V34.9639Z" fill="#EBEBEB"/>
<path d="M41.5782 33.7642H39.6592V33.7892H41.5782V33.7642Z" fill="#EBEBEB"/>
<path d="M9.56509 33.9316H5.24609V33.9566H9.56509V33.9316Z" fill="#EBEBEB"/>
<path d="M11.0891 33.9316H10.4561V33.9566H11.0891V33.9316Z" fill="#EBEBEB"/>
<path d="M22.515 34.354H13.147V34.379H22.515V34.354Z" fill="#EBEBEB"/>
<path d="M23.6998 28.6228H4.3908C4.23954 28.6225 4.09456 28.5622 3.98769 28.4552C3.88082 28.3481 3.8208 28.203 3.8208 28.0518V0.908773C3.82212 0.758376 3.88272 0.614571 3.98945 0.508595C4.09617 0.402619 4.2404 0.343031 4.3908 0.342773H23.6998C23.8512 0.342773 23.9965 0.402932 24.1036 0.510016C24.2106 0.617099 24.2708 0.762335 24.2708 0.913773V28.0518C24.2708 28.2032 24.2106 28.3485 24.1036 28.4555C23.9965 28.5626 23.8512 28.6228 23.6998 28.6228V28.6228ZM4.3908 0.362774C4.24617 0.363038 4.10755 0.42068 4.00537 0.523046C3.90319 0.625412 3.8458 0.764138 3.8458 0.908773V28.0518C3.8458 28.1964 3.90319 28.3351 4.00537 28.4375C4.10755 28.5399 4.24617 28.5975 4.3908 28.5978H23.6998C23.8445 28.5975 23.9833 28.5399 24.0856 28.4376C24.1879 28.3352 24.2455 28.1965 24.2458 28.0518V0.908773C24.2455 0.764046 24.1879 0.625323 24.0856 0.522985C23.9833 0.420647 23.8445 0.363038 23.6998 0.362774H4.3908Z" fill="#EBEBEB"/>
<path d="M45.3312 28.6228H26.0212C25.8698 28.6225 25.7248 28.5623 25.6177 28.4552C25.5107 28.3482 25.4505 28.2031 25.4502 28.0518V0.908773C25.4518 0.758285 25.5126 0.614481 25.6195 0.508533C25.7264 0.402584 25.8707 0.343028 26.0212 0.342773H45.3312C45.4814 0.343294 45.6254 0.402998 45.7319 0.508946C45.8384 0.614894 45.8989 0.758549 45.9002 0.908773V28.0518C45.9002 28.2029 45.8403 28.3478 45.7337 28.4548C45.627 28.5619 45.4823 28.6222 45.3312 28.6228V28.6228ZM26.0212 0.362774C25.8765 0.363038 25.7377 0.420647 25.6354 0.522985C25.5331 0.625323 25.4755 0.764046 25.4752 0.908773V28.0518C25.4755 28.1965 25.5331 28.3352 25.6354 28.4376C25.7377 28.5399 25.8765 28.5975 26.0212 28.5978H45.3312C45.4759 28.5975 45.6146 28.5399 45.717 28.4376C45.8193 28.3352 45.8769 28.1965 45.8772 28.0518V0.908773C45.8769 0.764046 45.8193 0.625323 45.717 0.522985C45.6146 0.420647 45.4759 0.363038 45.3312 0.362774H26.0212Z" fill="#EBEBEB"/>
<path d="M38.8701 26.531C41.9181 26.531 44.3891 24.6309 44.3891 22.287C44.3891 19.9431 41.9181 18.043 38.8701 18.043C35.822 18.043 33.3511 19.9431 33.3511 22.287C33.3511 24.6309 35.822 26.531 38.8701 26.531Z" fill="#EBEBEB"/>
<path d="M37.7151 21.192C40.1247 21.192 42.0781 19.6894 42.0781 17.836C42.0781 15.9825 40.1247 14.48 37.7151 14.48C35.3054 14.48 33.3521 15.9825 33.3521 17.836C33.3521 19.6894 35.3054 21.192 37.7151 21.192Z" fill="#EBEBEB"/>
<path d="M38.0489 3.15185C38.0489 3.15185 38.7699 2.52885 37.8339 2.37985C36.1339 2.10885 34.5969 2.95585 34.4019 3.06885C34.6019 2.67585 34.4599 2.36885 33.4349 2.47985C32.6279 2.56485 30.4609 3.64285 30.4609 3.64285H41.0529C42.5159 2.32785 38.0489 3.15185 38.0489 3.15185Z" fill="#F0F0F0"/>
<path d="M9.52708 7.90999C9.52708 7.90999 10.1211 7.44799 9.61508 7.33799C8.69808 7.13799 7.56408 7.76499 7.41508 7.84799C7.64208 7.55699 7.64008 7.33299 7.01508 7.41199C6.51508 7.47499 4.95508 8.27299 4.95508 8.27299H11.1471C12.3661 7.29899 9.52708 7.90999 9.52708 7.90999Z" fill="#F0F0F0"/>
<path d="M42.437 6.98671C42.437 6.98671 42.859 6.65871 42.5 6.57971C41.848 6.43771 41.042 6.87971 40.939 6.94271C41.101 6.73571 41.099 6.57671 40.653 6.63271C40.301 6.67771 39.189 7.24471 39.189 7.24471H43.589C44.454 6.55271 42.437 6.98671 42.437 6.98671Z" fill="#F5F5F5"/>
<path d="M11.0889 30.738C12.7225 30.738 14.0469 29.7194 14.0469 28.463C14.0469 27.2065 12.7225 26.188 11.0889 26.188C9.4552 26.188 8.13086 27.2065 8.13086 28.463C8.13086 29.7194 9.4552 30.738 11.0889 30.738Z" fill="#EBEBEB"/>
<path d="M9.24277 28.9722C7.08677 28.9722 5.34277 30.8122 5.34277 33.0832H13.1498C13.1468 30.8122 11.3998 28.9722 9.24277 28.9722Z" fill="#EBEBEB"/>
<path d="M28.5596 11.854H11.2236V33.083H28.5596V11.854Z" fill="#F0F0F0"/>
<path d="M28.5594 33.083H38.7764V11.854H28.5594V33.083Z" fill="#E6E6E6"/>
<path d="M31.7391 21.2676H35.5981V13.8976H31.7391V21.2676Z" fill="#F5F5F5"/>
<path d="M21.285 17.3867H25.144V12.9427H21.285V17.3867Z" fill="#F5F5F5"/>
<path d="M14.64 17.3867H18.499V12.9427H14.64V17.3867Z" fill="#F5F5F5"/>
<path d="M21.285 19.0322H25.144V18.2102H21.285V19.0322Z" fill="#F5F5F5"/>
<path d="M14.64 19.0322H18.499V18.2102H14.64V19.0322Z" fill="#F5F5F5"/>
<path d="M28.5594 33.083H38.7764V23.843H28.5594V33.083Z" fill="#F5F5F5"/>
<path d="M33.9849 29.791H37.2119V25.284H33.9849V29.791Z" fill="#E6E6E6"/>
<path d="M30.1251 29.791H33.3521V25.284H30.1251V29.791Z" fill="#E6E6E6"/>
<path d="M28.5596 23.8433H11.2236V33.0833H28.5596V23.8433Z" fill="#FAFAFA"/>
<path d="M17.8309 25.043H14.0459V32.563H17.8309V25.043Z" fill="#E6E6E6"/>
<path d="M30.1081 5.24316H19.8921L28.5601 11.8542H38.7761L30.1081 5.24316Z" fill="#F0F0F0"/>
<path d="M17.991 4.4541H15.147V10.2981H17.991V4.4541Z" fill="#EBEBEB"/>
<path d="M19.8916 5.24316L11.2236 11.8542H28.5596L19.8916 5.24316Z" fill="#FAFAFA"/>
<path d="M19.8921 6.51465L12.8921 11.8536H26.8921L19.8921 6.51465Z" fill="#F0F0F0"/>
<path d="M23.8221 20.2207H12.0891L9.45605 22.8537V23.8427H26.4561V22.8537L23.8221 20.2207Z" fill="#E6E6E6"/>
<path d="M38.7771 32.043H9.45605V33.083H38.7771V32.043Z" fill="#E6E6E6"/>
<path d="M28.5599 28.4629H16.8779V32.0429H28.5599V28.4629Z" fill="#F0F0F0"/>
<path d="M23.8999 23.8433H23.2109V32.0433H23.8999V23.8433Z" fill="#E6E6E6"/>
<path d="M10.6783 23.8433H9.98926V32.0433H10.6783V23.8433Z" fill="#E6E6E6"/>
<path d="M24.9998 37.599C35.7081 37.599 44.3888 37.0921 44.3888 36.467C44.3888 35.8418 35.7081 35.335 24.9998 35.335C14.2916 35.335 5.61084 35.8418 5.61084 36.467C5.61084 37.0921 14.2916 37.599 24.9998 37.599Z" fill="#F5F5F5"/>
<path d="M28.7318 17.9277H27.3408V36.7667H28.7318V17.9277Z" fill="#192538"/>
<path opacity="0.3" d="M28.7318 17.9277H27.3408V36.7667H28.7318V17.9277Z" fill="white"/>
<path d="M30.1229 17.9277H28.7319V36.7667H30.1229V17.9277Z" fill="#192538"/>
<path opacity="0.5" d="M30.1229 17.9277H28.7319V36.7667H30.1229V17.9277Z" fill="white"/>
<path d="M40.082 19.001H29.189V20.326H40.082V19.001Z" fill="#192538"/>
<path opacity="0.3" d="M40.082 19.001H29.189V20.326H40.082V19.001Z" fill="white"/>
<path d="M41.039 19.001H40.082V20.326H41.039V19.001Z" fill="#192538"/>
<path opacity="0.5" d="M41.039 19.001H40.082V20.326H41.039V19.001Z" fill="white"/>
<path d="M39.2122 20.3262H30.9722V28.2042H39.2122V20.3262Z" fill="#192538"/>
<path opacity="0.2" d="M39.2119 20.3262H38.9219V28.2042H39.2119V20.3262Z" fill="black"/>
<path d="M32.4326 21.9912H33.7326V22.3562H32.9626V22.6562H33.6206V22.9992H32.9626V23.6932H32.4346L32.4326 21.9912Z" fill="white"/>
<path d="M33.9478 22.8431C33.9353 22.7248 33.9493 22.6051 33.9889 22.4928C34.0285 22.3806 34.0927 22.2786 34.1767 22.1943C34.2607 22.11 34.3625 22.0454 34.4746 22.0055C34.5868 21.9655 34.7064 21.951 34.8248 21.9631C34.9435 21.9554 35.0626 21.9716 35.1749 22.0107C35.2873 22.0499 35.3906 22.1113 35.4788 22.1911C35.5582 22.2764 35.6195 22.3769 35.6589 22.4866C35.6983 22.5963 35.7149 22.7128 35.7078 22.8291C35.7143 22.9978 35.68 23.1656 35.6078 23.3181C35.5432 23.4448 35.4422 23.5493 35.3178 23.6181C35.1722 23.6936 35.0096 23.7301 34.8458 23.7241C34.6823 23.7299 34.5196 23.6988 34.3698 23.6331C34.2415 23.5691 34.1353 23.4681 34.0648 23.3431C33.9812 23.1902 33.9407 23.0173 33.9478 22.8431V22.8431ZM34.4728 22.8431C34.4614 22.9737 34.4949 23.1042 34.5678 23.2131C34.6017 23.2482 34.6424 23.2761 34.6873 23.2951C34.7322 23.3141 34.7805 23.3239 34.8293 23.3239C34.8781 23.3239 34.9264 23.3141 34.9713 23.2951C35.0162 23.2761 35.0569 23.2482 35.0908 23.2131C35.1518 23.1401 35.1828 23.0081 35.1828 22.8131C35.1923 22.6883 35.1568 22.5641 35.0828 22.4631C35.05 22.4262 35.0094 22.397 34.9639 22.3778C34.9184 22.3586 34.8691 22.3498 34.8198 22.3521C34.7716 22.3502 34.7236 22.3593 34.6794 22.3787C34.6352 22.3981 34.596 22.4273 34.5648 22.4641C34.4908 22.5758 34.4582 22.7099 34.4728 22.8431V22.8431Z" fill="white"/>
<path d="M36 23.6901V21.9901H36.875C37.0004 21.9856 37.1258 21.9997 37.247 22.0321C37.3316 22.0587 37.4046 22.1134 37.454 22.1871C37.5086 22.2682 37.5362 22.3644 37.533 22.4621C37.5363 22.5445 37.5171 22.6263 37.4772 22.6986C37.4374 22.7709 37.3785 22.8309 37.307 22.8721C37.2496 22.9041 37.1875 22.9267 37.123 22.9391C37.1712 22.9533 37.217 22.9745 37.259 23.0021C37.2905 23.0282 37.3187 23.0581 37.343 23.0911C37.3709 23.1241 37.3956 23.1596 37.417 23.1971L37.671 23.6891H37.078L36.8 23.1711C36.7761 23.1218 36.742 23.0782 36.7 23.0431C36.6624 23.0172 36.6177 23.0036 36.572 23.0041H36.525V23.6931L36 23.6901ZM36.527 22.6801H36.749C36.7959 22.6763 36.8424 22.6687 36.888 22.6571C36.9221 22.6502 36.9523 22.631 36.973 22.6031C36.9953 22.5746 37.007 22.5392 37.006 22.5031C37.0072 22.4794 37.0032 22.4557 36.9942 22.4338C36.9852 22.4118 36.9715 22.3921 36.954 22.3761C36.894 22.3398 36.8237 22.3244 36.754 22.3321H36.523L36.527 22.6801Z" fill="white"/>
<path d="M31.6138 25.9757L32.1138 25.9447C32.1191 26.0112 32.1422 26.0751 32.1808 26.1297C32.2086 26.1635 32.244 26.1901 32.2842 26.2075C32.3244 26.2249 32.3681 26.2325 32.4118 26.2297C32.4741 26.2338 32.5359 26.2153 32.5858 26.1777C32.6043 26.1629 32.6193 26.1442 32.6297 26.1229C32.6401 26.1017 32.6456 26.0783 32.6458 26.0547C32.6453 26.0319 32.6399 26.0096 32.6299 25.9892C32.6199 25.9688 32.6055 25.9509 32.5878 25.9367C32.5065 25.8847 32.4152 25.8506 32.3198 25.8367C32.1413 25.8077 31.9724 25.7368 31.8268 25.6297C31.779 25.5899 31.7409 25.5398 31.7153 25.4831C31.6897 25.4265 31.6772 25.3648 31.6788 25.3027C31.6788 25.2143 31.7053 25.1279 31.7548 25.0547C31.8105 24.972 31.89 24.9082 31.9828 24.8717C32.1163 24.8218 32.2584 24.7991 32.4008 24.8047C32.5759 24.7929 32.7504 24.8351 32.9008 24.9257C32.9596 24.9721 33.0079 25.0305 33.0424 25.0971C33.0769 25.1636 33.0968 25.2368 33.1008 25.3117L32.6058 25.3407C32.6043 25.309 32.5964 25.278 32.5825 25.2496C32.5686 25.2212 32.5489 25.1959 32.5248 25.1753C32.5007 25.1548 32.4727 25.1394 32.4424 25.1302C32.4121 25.121 32.3802 25.1181 32.3488 25.1217C32.2996 25.1181 32.2508 25.1319 32.2108 25.1607C32.1961 25.1716 32.1843 25.1858 32.1761 25.2021C32.168 25.2184 32.1637 25.2364 32.1638 25.2547C32.1647 25.2689 32.1686 25.2828 32.1754 25.2954C32.1821 25.308 32.1914 25.319 32.2028 25.3277C32.2562 25.3611 32.3163 25.3826 32.3788 25.3907C32.5485 25.4208 32.714 25.4712 32.8718 25.5407C32.9602 25.5815 33.0351 25.6467 33.0878 25.7287C33.1335 25.8043 33.1571 25.8913 33.1558 25.9797C33.1559 26.0863 33.1246 26.1907 33.0658 26.2797C33.0038 26.3727 32.9158 26.4454 32.8128 26.4887C32.6827 26.5399 32.5435 26.5641 32.4038 26.5597C32.1148 26.5597 31.9148 26.5047 31.8038 26.3927C31.6926 26.2809 31.6252 26.1329 31.6138 25.9757V25.9757Z" fill="white"/>
<path d="M34.4636 26.2579H33.8636L33.7806 26.5379H33.2446L33.8836 24.8379H34.4556L35.0996 26.5429H34.5496L34.4636 26.2579ZM34.3546 25.8899L34.1676 25.2799L33.9816 25.8899H34.3546Z" fill="white"/>
<path d="M35.2661 24.8428H35.7911V26.1238H36.6101V26.5428H35.2661V24.8428Z" fill="white"/>
<path d="M36.8467 24.8428H38.2537V25.2058H37.3737V25.4758H38.1907V25.8228H37.3737V26.1578H38.2797V26.5428H36.8467V24.8428Z" fill="white"/>
<path d="M21.9738 9.91888L21.8228 10.1189C21.7738 10.1819 21.7228 10.2429 21.6718 10.3039C21.5718 10.4259 21.4658 10.5439 21.3598 10.6619C21.1458 10.8949 20.9238 11.1239 20.6808 11.3419C20.4336 11.5713 20.1699 11.7822 19.8918 11.9729C19.7387 12.0777 19.579 12.1725 19.4138 12.2569C19.2191 12.3569 19.0129 12.4328 18.7998 12.4829L18.7568 12.4919C18.7197 12.5003 18.6818 12.5053 18.6438 12.5069C18.4369 12.513 18.2314 12.4705 18.0438 12.3829C17.9155 12.3239 17.7953 12.249 17.6858 12.1599C17.52 12.0248 17.3688 11.8726 17.2348 11.7059C17.0092 11.4237 16.8085 11.1226 16.6348 10.8059C16.4688 10.5059 16.3218 10.1999 16.1888 9.89088C16.0539 9.58256 15.9351 9.26748 15.8328 8.94688C15.8021 8.84453 15.8081 8.73463 15.85 8.63631C15.8919 8.53798 15.9669 8.45744 16.062 8.4087C16.1572 8.35996 16.2663 8.34609 16.3706 8.36951C16.4749 8.39293 16.5677 8.45215 16.6328 8.53688L16.6418 8.54888C16.8268 8.79788 17.0138 9.05888 17.2018 9.30788C17.3898 9.55688 17.5778 9.80788 17.7718 10.0389C17.951 10.2621 18.1451 10.4729 18.3528 10.6699C18.4317 10.7465 18.5193 10.8136 18.6138 10.8699C18.6478 10.8879 18.6738 10.8949 18.6718 10.8899C18.6698 10.8849 18.6318 10.8599 18.5408 10.8619L18.3848 10.8859C18.4542 10.8518 18.521 10.8127 18.5848 10.7689C18.6688 10.7109 18.7628 10.6439 18.8558 10.5689C18.9488 10.4939 19.0448 10.4059 19.1388 10.3159C19.2328 10.2259 19.3298 10.1339 19.4248 10.0379C19.6128 9.83788 19.8018 9.63788 19.9858 9.43088L20.2608 9.11488L20.5248 8.80488L20.5498 8.77588C20.7039 8.59501 20.9226 8.48144 21.1592 8.45935C21.3958 8.43727 21.6317 8.50842 21.8167 8.65765C22.0016 8.80688 22.121 9.02241 22.1494 9.25835C22.1778 9.49429 22.113 9.73201 21.9688 9.92088L21.9738 9.91888Z" fill="#263238"/>
<path d="M16.6117 8.34306C16.5547 7.89306 15.7377 7.68506 15.7377 7.68506L15.2607 7.47406C15.1825 7.43921 15.0945 7.43336 15.0124 7.45755C14.9303 7.48174 14.8595 7.53439 14.8127 7.60606L14.5697 7.97806C14.5441 8.01811 14.5266 8.06281 14.5183 8.10962C14.51 8.15642 14.5109 8.20441 14.5211 8.25084C14.5314 8.29727 14.5506 8.34123 14.5778 8.38022C14.605 8.4192 14.6397 8.45245 14.6797 8.47806L15.1177 8.75206C15.1963 8.80056 15.2842 8.83192 15.3757 8.84406L15.7477 8.89206C15.904 8.91226 16.0629 8.88764 16.2057 8.82108C16.3486 8.75451 16.4696 8.64873 16.5547 8.51606L16.5777 8.48106C16.6042 8.44018 16.6162 8.39157 16.6117 8.34306V8.34306Z" fill="#FFB573"/>
<path d="M22.1831 26.1019C23.4831 21.9749 24.4921 16.9529 24.4921 16.9529L20.5771 16.5679C20.5771 16.5679 20.3201 23.0299 20.0771 25.8919C19.8231 28.8669 18.8301 35.7779 18.8301 35.7779L20.0201 35.8779C20.0201 35.8779 22.0631 29.7969 22.1831 26.1019Z" fill="#263238"/>
<path d="M22.9648 20.3247L23.5088 21.2957C23.2308 22.4287 22.9088 23.6747 22.5498 24.8957C22.5998 22.9797 22.7998 20.7697 22.9648 20.3247Z" fill="black"/>
<path d="M17.2349 36.0528C17.2349 36.0528 18.9179 35.9148 19.0789 35.6758L19.9839 35.8128L19.8349 36.7668L19.2769 36.6828L19.2049 36.5828L19.0499 36.6498C18.5999 36.5808 17.3999 36.3828 17.1339 36.2428C17.1325 36.205 17.1411 36.1675 17.1588 36.1342C17.1766 36.1008 17.2028 36.0727 17.2349 36.0528Z" fill="#263238"/>
<path d="M25.988 25.827C25.919 21.584 26.188 18.748 25.827 16.657L22.25 16.603C22.25 16.603 23.129 23.335 23.566 26.138C24.003 28.941 24.559 35.863 24.559 35.863H25.665C25.665 35.863 26.627 29.11 25.988 25.827Z" fill="#263238"/>
<path d="M23.475 36.4478C23.475 36.4478 24.536 36.0608 24.675 35.8008H25.591L25.522 36.7668H24.774L24.693 36.6778L24.545 36.7668C24.088 36.7668 23.669 36.7488 23.389 36.6458C23.3858 36.6082 23.392 36.5705 23.407 36.5359C23.422 36.5013 23.4454 36.4711 23.475 36.4478V36.4478Z" fill="#263238"/>
<path d="M25.6678 8.18995C24.4028 8.03295 22.5948 8.04795 21.3828 8.25695C21.0801 8.31174 20.8022 8.46041 20.5886 8.68188C20.3751 8.90335 20.2366 9.1864 20.1928 9.49095C19.9378 11.3209 20.1568 14.5199 20.3198 17.7399C23.0878 18.6869 26.0088 17.7269 26.0088 17.7269C26.1088 17.0769 25.8828 14.9489 25.7298 13.8129C25.9588 12.6399 26.4428 11.2959 26.7628 9.73795C26.8022 9.56356 26.8044 9.38285 26.7694 9.20753C26.7345 9.03222 26.6631 8.86621 26.5598 8.72026C26.4566 8.57431 26.3238 8.45168 26.1702 8.36033C26.0165 8.26897 25.8453 8.21092 25.6678 8.18995V8.18995Z" fill="#263238"/>
<path d="M22.4059 8.13399C22.2539 8.28699 22.1529 8.52799 22.0989 8.83399C21.9689 9.57699 22.1159 10.722 22.5079 12.034C22.8829 10.976 23.6899 9.57599 24.1859 8.76299C24.4209 8.37799 24.5859 8.12299 24.5999 8.10099C23.8767 7.93373 23.1237 7.94505 22.4059 8.13399Z" fill="#E0E0E0"/>
<path d="M24.416 5.77295L22.975 6.95495C23.162 7.44995 23.221 7.96595 22.407 8.16495C22.207 8.43395 22.563 8.74195 22.899 8.88195C23.442 8.81495 24.208 8.63395 24.539 8.18195C24.434 7.82195 24.276 6.50595 24.416 5.77295Z" fill="#FFB573"/>
<path d="M22.5547 8.5837C22.6154 8.75644 22.7186 8.91117 22.8547 9.0337C23.0747 9.0337 23.3957 8.7867 23.3957 8.7867C23.3957 8.7867 23.2717 8.4377 23.0957 8.3667C22.6507 8.4767 22.5547 8.5837 22.5547 8.5837Z" fill="#192538"/>
<path d="M23.057 8.88284C23.0229 8.85647 22.9837 8.83737 22.942 8.8267C22.9002 8.81604 22.8566 8.81405 22.814 8.82084C22.526 9.22984 22.343 9.86584 22.165 10.5998C22.2504 11.0873 22.365 11.5691 22.508 12.0428C22.6684 11.6074 22.8554 11.1823 23.068 10.7698C22.9858 10.1438 22.9822 9.50985 23.057 8.88284V8.88284Z" fill="#192538"/>
<path opacity="0.2" d="M23.8151 6.26562L22.9761 6.95362C23.021 7.0684 23.0545 7.1873 23.0761 7.30863C23.4011 7.33163 23.8531 7.00263 23.8761 6.70863C23.8832 6.55846 23.8625 6.40828 23.8151 6.26562Z" fill="black"/>
<path d="M22.3809 3.70496C21.7529 4.32396 22.1649 5.31396 22.1649 5.31396C22.1649 5.31396 23.2629 3.35496 22.3809 3.70496Z" fill="#263238"/>
<path d="M24.6219 4.96801C24.4909 5.86801 24.4599 6.40701 23.9619 6.83101C23.2129 7.46901 22.1259 6.95001 21.9839 6.02301C21.8569 5.18801 22.0929 3.85101 23.0129 3.57101C23.2166 3.50907 23.4328 3.49985 23.641 3.54421C23.8493 3.58858 24.0429 3.68509 24.2036 3.82469C24.3644 3.96428 24.4871 4.14241 24.5603 4.34238C24.6335 4.54234 24.6547 4.75761 24.6219 4.96801V4.96801Z" fill="#FFB573"/>
<path d="M24.7229 5.43075C24.0459 5.56975 23.8499 5.04575 23.8499 5.04575C23.9871 5.07427 24.1287 5.07427 24.2659 5.04575C24.2659 5.04575 23.8099 4.57975 24.1659 4.12875C23.9799 3.92875 23.1519 4.01475 22.7659 4.12875C22.3439 3.96975 22.1269 3.89575 21.9019 3.39475C22.1099 3.43076 22.3239 3.40431 22.5169 3.31875C22.9369 3.12575 22.3069 2.98375 22.3069 2.98375C22.7898 2.79496 23.3132 2.73332 23.8269 2.80475C24.8069 2.94275 24.9589 3.23375 24.9209 3.56375C25.4339 3.55775 25.4849 4.12875 25.4849 4.12875C25.4225 4.07881 25.3492 4.04452 25.2709 4.02875C25.2999 4.20275 25.3999 5.22375 24.7229 5.43075Z" fill="#263238"/>
<path d="M24.7822 3.63118C24.9702 3.54618 25.0272 3.09718 24.9162 2.90918C25.4192 3.44318 25.0562 3.66118 24.7822 3.63118Z" fill="#263238"/>
<path d="M24.9279 5.66889C24.886 5.76372 24.8257 5.84931 24.7505 5.92071C24.6753 5.99211 24.5867 6.04791 24.4899 6.08489C24.2289 6.18489 24.0729 5.95489 24.1239 5.69689C24.1699 5.46389 24.3609 5.13389 24.6329 5.14789C24.6921 5.15177 24.7495 5.17032 24.7998 5.20189C24.8501 5.23346 24.8918 5.27705 24.9211 5.32874C24.9503 5.38042 24.9663 5.43857 24.9675 5.49795C24.9687 5.55733 24.955 5.61608 24.9279 5.66889Z" fill="#FFB573"/>
<path d="M23.3537 5.00119C23.3477 5.07519 23.3027 5.13119 23.2537 5.12719C23.2047 5.12319 23.1707 5.05919 23.1777 4.98519C23.1847 4.91119 23.2277 4.85419 23.2777 4.85919C23.3277 4.86419 23.3597 4.92719 23.3537 5.00119Z" fill="#263238"/>
<path d="M22.4687 4.97863C22.4627 5.05263 22.4187 5.10963 22.3687 5.10463C22.3187 5.09963 22.2867 5.03663 22.2927 4.96263C22.2987 4.88863 22.3427 4.83263 22.3927 4.83663C22.4427 4.84063 22.4747 4.90463 22.4687 4.97863Z" fill="#263238"/>
<path d="M22.6477 5.0791C22.6477 5.0791 22.4477 5.4901 22.2417 5.6791C22.3627 5.8131 22.5897 5.7791 22.5897 5.7791L22.6477 5.0791Z" fill="#ED893E"/>
<path d="M23.5686 4.7789C23.5759 4.78044 23.5834 4.78044 23.5906 4.7789C23.596 4.77682 23.6009 4.77367 23.605 4.76965C23.6092 4.76563 23.6125 4.76081 23.6147 4.75549C23.6169 4.75018 23.6181 4.74446 23.6181 4.73869C23.6181 4.73292 23.6169 4.72721 23.6146 4.7219C23.5898 4.65623 23.5496 4.59745 23.4974 4.55048C23.4452 4.50351 23.3825 4.46971 23.3146 4.4519C23.3034 4.44983 23.2917 4.45221 23.2822 4.45856C23.2727 4.46491 23.266 4.47472 23.2636 4.4859C23.2612 4.49731 23.2635 4.50918 23.2699 4.51893C23.2762 4.52868 23.2862 4.5355 23.2976 4.5379C23.3507 4.55282 23.3994 4.5802 23.4398 4.61777C23.4802 4.65535 23.511 4.70202 23.5296 4.7539C23.5331 4.76136 23.5385 4.76767 23.5455 4.7721C23.5524 4.77653 23.5604 4.77889 23.5686 4.7789V4.7789Z" fill="#263238"/>
<path d="M22.057 4.69692C22.0638 4.69936 22.0711 4.70009 22.0783 4.69905C22.0854 4.698 22.0922 4.69521 22.098 4.69092C22.1408 4.65696 22.1911 4.63371 22.2447 4.6231C22.2982 4.61249 22.3536 4.61483 22.406 4.62992C22.4114 4.63198 22.4172 4.63294 22.4229 4.63274C22.4287 4.63254 22.4343 4.63119 22.4395 4.62877C22.4448 4.62634 22.4495 4.62289 22.4533 4.61863C22.4572 4.61436 22.4601 4.60935 22.462 4.60392C22.4659 4.59304 22.4654 4.58107 22.4605 4.57059C22.4556 4.56011 22.4469 4.55197 22.436 4.54792C22.37 4.52779 22.3 4.52391 22.2321 4.53662C22.1642 4.54933 22.1004 4.57825 22.046 4.62092C22.0398 4.62568 22.035 4.632 22.0321 4.63925C22.0291 4.6465 22.0281 4.6544 22.0293 4.66214C22.0304 4.66988 22.0335 4.67719 22.0384 4.6833C22.0433 4.68941 22.0497 4.69411 22.057 4.69692Z" fill="#263238"/>
<path d="M24.5996 8.104C24.5846 8.126 24.4206 8.381 24.1856 8.766C23.9494 8.98448 23.6596 9.13663 23.3456 9.207C23.3916 9.052 23.2526 8.527 23.0986 8.365C23.4616 8.386 23.9616 8.324 24.5996 8.104Z" fill="#FAFAFA"/>
<path d="M23.0995 8.36672C22.9333 8.43963 22.7835 8.54544 22.6593 8.67778C22.535 8.81011 22.4389 8.96623 22.3765 9.13672C22.3124 9.10868 22.2549 9.06748 22.2077 9.0158C22.1605 8.96413 22.1247 8.90312 22.1025 8.83672C22.1565 8.52772 22.2575 8.28672 22.4095 8.13672C22.4905 8.24272 22.7195 8.34272 23.0995 8.36672Z" fill="#FAFAFA"/>
<path d="M26.7662 9.07368C26.8402 9.23468 26.9022 9.37368 26.9662 9.53068C27.0302 9.68768 27.0862 9.83068 27.1442 9.98668C27.2562 10.2927 27.3612 10.6027 27.4532 10.9227C27.55 11.2482 27.6295 11.5787 27.6912 11.9127C27.7232 12.0847 27.7502 12.2627 27.7682 12.4507C27.7873 12.6565 27.7896 12.8635 27.7752 13.0697C27.7313 13.4849 27.6022 13.8866 27.3962 14.2497C27.2248 14.5615 27.0239 14.8562 26.7962 15.1297C26.5818 15.3886 26.3517 15.6341 26.1072 15.8647C25.8649 16.0939 25.6077 16.3067 25.3372 16.5017C25.2499 16.5639 25.1436 16.5935 25.0368 16.5853C24.93 16.5771 24.8294 16.5316 24.7527 16.4568C24.676 16.382 24.628 16.2827 24.6171 16.1761C24.6062 16.0695 24.6331 15.9624 24.6932 15.8737L24.7082 15.8527L24.9592 15.4837C25.0442 15.3597 25.1252 15.2327 25.2062 15.1067C25.3652 14.8557 25.5202 14.6067 25.6532 14.3507C25.7855 14.112 25.8995 13.8636 25.9942 13.6077C26.0357 13.4955 26.0691 13.3806 26.0942 13.2637C26.1147 13.1742 26.1231 13.0824 26.1192 12.9907C26.1118 12.8841 26.0967 12.7781 26.0742 12.6737C26.0502 12.5517 26.0212 12.4217 25.9852 12.2887C25.9112 12.0227 25.8232 11.7467 25.7272 11.4697C25.6312 11.1927 25.5272 10.9137 25.4202 10.6347L25.0962 9.80568L25.0882 9.78668C25.0027 9.56561 25.0065 9.31997 25.0989 9.10168C25.1912 8.8834 25.3649 8.70959 25.583 8.61699C25.8012 8.5244 26.0469 8.52027 26.268 8.6055C26.4892 8.69072 26.6685 8.85861 26.7682 9.07368H26.7662Z" fill="#263238"/>
<path d="M21.405 13.7862C21.0034 14.0983 20.7329 14.5493 20.6467 15.0506C20.5605 15.5519 20.6648 16.0673 20.9391 16.4957C21.2134 16.9241 21.6379 17.2344 22.1293 17.3659C22.6207 17.4973 23.1435 17.4404 23.595 17.2062L23.845 17.5262L23.799 17.7262L24.33 18.4092L24.62 18.4152L24.541 18.7522L25.583 20.0922L26.143 20.1022L26.331 20.3452L26.238 20.7451L26.929 21.6331L27.515 21.6442L27.615 21.0152L24.246 16.6842C24.5618 16.2953 24.7233 15.8038 24.6999 15.3035C24.6764 14.8031 24.4696 14.3289 24.1189 13.9712C23.7682 13.6136 23.2981 13.3976 22.7983 13.3644C22.2985 13.3311 21.804 13.4831 21.409 13.7912L21.405 13.7862ZM22.267 14.8942C22.1861 14.9573 22.0882 14.9951 21.9858 15.0027C21.8834 15.0103 21.7811 14.9873 21.6918 14.9367C21.6024 14.8861 21.5301 14.8101 21.484 14.7184C21.4378 14.6267 21.4199 14.5233 21.4325 14.4214C21.4451 14.3195 21.4876 14.2236 21.5547 14.1459C21.6218 14.0682 21.7105 14.0121 21.8094 13.9848C21.9084 13.9575 22.0133 13.9601 22.1107 13.9924C22.2082 14.0247 22.2939 14.0852 22.357 14.1662C22.4415 14.2747 22.4795 14.4123 22.4627 14.5488C22.4458 14.6853 22.3754 14.8095 22.267 14.8942Z" fill="#192538"/>
<path d="M25.4619 16.305C25.4486 16.2567 25.4185 16.2148 25.3769 16.187L25.0239 15.943C24.99 15.9195 24.9501 15.906 24.9089 15.9041C24.8677 15.9021 24.8268 15.9118 24.7909 15.932L24.4739 16.113C24.1657 16.2874 23.8986 16.5262 23.6909 16.813L23.6219 16.913C23.5939 16.952 23.5739 16.9962 23.5632 17.0431C23.5526 17.0899 23.5513 17.1384 23.5596 17.1857C23.5679 17.233 23.5855 17.2782 23.6115 17.3186C23.6375 17.359 23.6713 17.3938 23.7109 17.421L24.0769 17.673C24.1475 17.7214 24.233 17.7432 24.3182 17.7344C24.4034 17.7256 24.4826 17.6868 24.5419 17.625L24.8999 17.243C24.8999 17.243 25.5799 16.743 25.4619 16.305Z" fill="#FFB573"/>
<path d="M24.8109 15.7432C24.6543 15.8094 24.5086 15.8991 24.3789 16.0092C24.4249 16.2902 25.2079 16.7582 25.4719 16.7642C25.5789 16.6642 25.7199 16.2532 25.7199 16.2532C25.4239 16.1252 25.0249 15.8432 24.8109 15.7432Z" fill="#E0E0E0"/>
<path d="M16.7996 8.74293C16.8031 8.57388 16.7809 8.40529 16.7336 8.24293C16.4586 8.16893 15.7116 8.69293 15.5986 8.93293C15.6476 9.07193 15.9626 9.36693 15.9626 9.36693C16.1996 9.14293 16.6196 8.89293 16.7996 8.74293Z" fill="#E0E0E0"/>
<path d="M24.4941 35.894L25.7221 35.929L25.8501 35.231L24.4131 35.317L24.4941 35.894Z" fill="#192538"/>
<path d="M18.772 35.769L20.085 35.972L20.307 35.392L18.852 35.063L18.772 35.769Z" fill="#192538"/>
<path d="M22.9321 6.0427C22.8847 6.04473 22.8371 6.04239 22.7901 6.0357C22.787 6.03523 22.784 6.03411 22.7813 6.03242C22.7786 6.03073 22.7763 6.02849 22.7745 6.02586C22.7727 6.02323 22.7715 6.02026 22.7709 6.01713C22.7703 6.014 22.7704 6.01079 22.7711 6.0077C22.7726 6.00099 22.7764 5.99505 22.7819 5.99099C22.7875 5.98694 22.7943 5.98505 22.8011 5.9857C22.907 6.00142 23.0152 5.99294 23.1173 5.9609C23.2195 5.92886 23.3131 5.87409 23.3911 5.8007C23.396 5.79605 23.4024 5.79346 23.4091 5.79346C23.4158 5.79346 23.4223 5.79605 23.4271 5.8007C23.4317 5.80537 23.4343 5.81165 23.4343 5.8182C23.4343 5.82474 23.4317 5.83102 23.4271 5.8357C23.2934 5.96362 23.1171 6.03738 22.9321 6.0427V6.0427Z" fill="#263238"/>
<path d="M19.4908 2.38812L16.4658 2.14512L13.8968 0.870117L11.0808 1.71212L10.6748 6.76712L19.0848 7.44312L19.4908 2.38812Z" fill="#192538"/>
<path d="M9.80414 7.2582L8.47314 7.1512L8.64014 5.0752L8.79914 5.0882L8.64514 7.0052L9.81714 7.09919L9.80414 7.2582Z" fill="#192538"/>
<path d="M10.4322 7.10855L10.4194 7.26855L11.4594 7.35175L11.4722 7.19175L10.4322 7.10855Z" fill="#192538"/>
<path d="M11.1345 4.93646L9.22363 4.78271L9.0743 6.63872L10.9851 6.79246L11.1345 4.93646Z" fill="#192538"/>
<path opacity="0.2" d="M10.9858 6.79193L12.6618 6.92693L12.8648 4.39893L11.1348 4.93493L10.9858 6.79193Z" fill="black"/>
<path opacity="0.2" d="M19.491 2.39086L16.4658 2.14746L16.0591 7.20213L19.0844 7.44553L19.491 2.39086Z" fill="black"/>
<path d="M16.922 1.11312L13.897 0.870117L16.466 2.14512L19.491 2.38812L16.922 1.11312Z" fill="#263238"/>
<path d="M19.4911 2.54835H19.4781L16.4531 2.30535C16.4329 2.30322 16.4133 2.29746 16.3951 2.28835L13.8261 1.01335C13.7928 0.996816 13.7663 0.969207 13.7512 0.935266C13.736 0.901326 13.7332 0.863171 13.7431 0.827353C13.7533 0.791671 13.7755 0.76058 13.8059 0.739283C13.8363 0.717985 13.8731 0.707773 13.9101 0.710353L16.9351 0.953353C16.9556 0.955478 16.9756 0.961234 16.9941 0.970353L19.5621 2.24335C19.5927 2.26023 19.617 2.28667 19.6311 2.31863C19.6453 2.35059 19.6486 2.38631 19.6406 2.42032C19.6325 2.45434 19.6135 2.48479 19.5866 2.50701C19.5596 2.52922 19.526 2.54199 19.4911 2.54335V2.54835ZM16.5091 1.98835L18.6771 2.16335L16.8771 1.27035L14.7091 1.09535L16.5091 1.98835Z" fill="#263238"/>
<path d="M10.9551 4.24609L12.8651 4.39909L11.1351 4.93509L9.2251 4.78209L10.9551 4.24609Z" fill="#263238"/>
<path d="M11.135 5.03728H11.127L9.21602 4.88328C9.19254 4.88151 9.17044 4.87151 9.15361 4.85505C9.13679 4.83859 9.1263 4.81671 9.12402 4.79328C9.12165 4.76928 9.12804 4.74523 9.14201 4.72557C9.15597 4.70591 9.17658 4.69195 9.20002 4.68628L10.93 4.14928C10.9426 4.14685 10.9555 4.14685 10.968 4.14928L12.878 4.30328C12.9015 4.30479 12.9237 4.31455 12.9407 4.33083C12.9578 4.34711 12.9685 4.36887 12.971 4.39228C12.9739 4.41577 12.9683 4.43952 12.9553 4.45929C12.9423 4.47907 12.9227 4.49359 12.9 4.50028L11.17 5.03628C11.1585 5.03867 11.1467 5.03901 11.135 5.03728ZM9.75502 4.72328L11.124 4.83328L12.335 4.45828L10.966 4.34828L9.75502 4.72328Z" fill="#263238"/>
<path d="M11.1581 1.87817C11.1202 1.87771 11.0837 1.86383 11.0551 1.83898C11.0265 1.81414 11.0076 1.77995 11.0019 1.74251C10.9961 1.70506 11.0038 1.66679 11.0236 1.63449C11.0434 1.6022 11.0741 1.57799 11.1101 1.56617L13.8501 0.717167C13.8708 0.706061 13.8938 0.699672 13.9173 0.698456C13.9408 0.69724 13.9643 0.701226 13.9861 0.710131C14.0079 0.719036 14.0274 0.732639 14.0434 0.749972C14.0593 0.767304 14.0712 0.787938 14.0782 0.810402C14.0853 0.832866 14.0873 0.856607 14.0841 0.879931C14.0809 0.903254 14.0726 0.925586 14.0598 0.945334C14.047 0.965082 14.03 0.981759 14.01 0.994176C13.99 1.00659 13.9675 1.01444 13.9441 1.01717L11.2051 1.86617C11.1901 1.87256 11.1743 1.87661 11.1581 1.87817V1.87817Z" fill="#263238"/>
<path opacity="0.6" d="M14.9401 5.14302L13.8481 5.05566L13.6892 7.04266L14.7812 7.13002L14.9401 5.14302Z" fill="white"/>
<path d="M15.0422 2.65029L12.4824 2.44434L12.3586 3.98336L14.9183 4.18931L15.0422 2.65029Z" fill="white"/>
<path d="M13.6469 2.64041L12.5693 2.55371L12.4619 3.88939L13.5394 3.97609L13.6469 2.64041Z" fill="#192538"/>
<path d="M14.9393 2.7449L13.8618 2.6582L13.7543 3.99389L14.8319 4.08058L14.9393 2.7449Z" fill="#192538"/>
<path d="M18.6804 2.9437L17.25 2.82861L17.1262 4.36764L18.5566 4.48273L18.6804 2.9437Z" fill="white"/>
<path d="M17.896 2.98301L17.2939 2.93457L17.1865 4.27025L17.7885 4.31869L17.896 2.98301Z" fill="#192538"/>
<path d="M18.6182 3.04063L18.0161 2.99219L17.9086 4.32787L18.5107 4.37631L18.6182 3.04063Z" fill="#192538"/>
<path d="M18.4816 5.40268L17.0513 5.2876L16.9274 6.82662L18.3578 6.94171L18.4816 5.40268Z" fill="white"/>
<path d="M17.6973 5.44199L17.0952 5.39355L16.9877 6.72924L17.5898 6.77768L17.6973 5.44199Z" fill="#192538"/>
<path d="M18.4819 5.53074L17.8779 5.48242L17.7707 6.82242L18.3747 6.87074L18.4819 5.53074Z" fill="#192538"/>
</svg>
