<svg width="1271" height="562" viewBox="0 0 1271 562" fill="none" xmlns="http://www.w3.org/2000/svg">
<path d="M361.5 0H394.5L259 257.5H226L361.5 0Z" fill="#02439C"/>
<path d="M361.5 0H394.5L259 257.5H226L361.5 0Z" fill="#02439C"/>
<path d="M361.5 0H394.5L259 257.5H226L361.5 0Z" fill="#02439C"/>
<path d="M361.5 0H394.5L259 257.5H226L361.5 0Z" fill="#02439C"/>
<path d="M361.5 0H394.5L259 257.5H226L361.5 0Z" fill="#02439C"/>
<path d="M435.148 0H461L354.852 205H329L435.148 0Z" fill="#02439C"/>
<path d="M435.148 0H461L354.852 205H329L435.148 0Z" fill="#02439C"/>
<path d="M435.148 0H461L354.852 205H329L435.148 0Z" fill="#02439C"/>
<path d="M435.148 0H461L354.852 205H329L435.148 0Z" fill="#02439C"/>
<path d="M435.148 0H461L354.852 205H329L435.148 0Z" fill="#02439C"/>
<path d="M511.261 0H533L443.739 172H422L511.261 0Z" fill="#02439C"/>
<path d="M511.261 0H533L443.739 172H422L511.261 0Z" fill="#02439C"/>
<path d="M511.261 0H533L443.739 172H422L511.261 0Z" fill="#02439C"/>
<path d="M511.261 0H533L443.739 172H422L511.261 0Z" fill="#02439C"/>
<path d="M511.261 0H533L443.739 172H422L511.261 0Z" fill="#02439C"/>
<path d="M586.961 0H604L534.039 123H517L586.961 0Z" fill="#02439C"/>
<path d="M586.961 0H604L534.039 123H517L586.961 0Z" fill="#02439C"/>
<path d="M586.961 0H604L534.039 123H517L586.961 0Z" fill="#02439C"/>
<path d="M586.961 0H604L534.039 123H517L586.961 0Z" fill="#02439C"/>
<path d="M586.961 0H604L534.039 123H517L586.961 0Z" fill="#02439C"/>
<path d="M306 231L586 287H554L274 231H306Z" fill="#BBC2BB"/>
<path d="M347 218L627 274H595L315 218H347Z" fill="#BBC2BB"/>
<path d="M430 212L710 268H678L398 212H430Z" fill="#BBC2BB"/>
<path d="M512 207L792 263H760L480 207H512Z" fill="#BBC2BB"/>
<path d="M395 0H362L560.5 286.5H593.5L395 0Z" fill="#02439C"/>
<path d="M395 0H362L560.5 286.5H593.5L395 0Z" fill="#02439C"/>
<path d="M395 0H362L560.5 286.5H593.5L395 0Z" fill="#02439C"/>
<path d="M395 0H362L560.5 286.5H593.5L395 0Z" fill="#02439C"/>
<path d="M395 0H362L560.5 286.5H593.5L395 0Z" fill="#C20D12"/>
<path d="M467.076 0H436L622.924 274H654L467.076 0Z" fill="#02439C"/>
<path d="M467.076 0H436L622.924 274H654L467.076 0Z" fill="#02439C"/>
<path d="M467.076 0H436L622.924 274H654L467.076 0Z" fill="#02439C"/>
<path d="M467.076 0H436L622.924 274H654L467.076 0Z" fill="#02439C"/>
<path d="M467.076 0H436L622.924 274H654L467.076 0Z" fill="#C20D12"/>
<path d="M542.363 0H512L694.637 267H725L542.363 0Z" fill="#02439C"/>
<path d="M542.363 0H512L694.637 267H725L542.363 0Z" fill="#02439C"/>
<path d="M542.363 0H512L694.637 267H725L542.363 0Z" fill="#02439C"/>
<path d="M542.363 0H512L694.637 267H725L542.363 0Z" fill="#02439C"/>
<path d="M542.363 0H512L694.637 267H725L542.363 0Z" fill="#C20D12"/>
<path d="M615.365 0H586L762.635 263H792L615.365 0Z" fill="#02439C"/>
<path d="M615.365 0H586L762.635 263H792L615.365 0Z" fill="#02439C"/>
<path d="M615.365 0H586L762.635 263H792L615.365 0Z" fill="#02439C"/>
<path d="M615.365 0H586L762.635 263H792L615.365 0Z" fill="#02439C"/>
<path d="M615.365 0H586L762.635 263H792L615.365 0Z" fill="#C20D12"/>
<path d="M88.6847 401.491H66.6676C66.3741 399.231 65.7723 397.191 64.8622 395.371C63.9522 393.551 62.7486 391.995 61.2514 390.703C59.7543 389.411 57.9782 388.428 55.9233 387.753C53.8977 387.048 51.652 386.696 49.1861 386.696C44.812 386.696 41.0398 387.768 37.8693 389.911C34.7282 392.054 32.3063 395.151 30.6037 399.202C28.9304 403.253 28.0938 408.155 28.0938 413.909C28.0938 419.898 28.9451 424.918 30.6477 428.969C32.3797 432.991 34.8016 436.029 37.9134 438.084C41.0545 440.109 44.768 441.122 49.054 441.122C51.4612 441.122 53.6482 440.814 55.6151 440.197C57.6113 439.581 59.358 438.686 60.8551 437.511C62.3816 436.308 63.6293 434.855 64.598 433.152C65.5961 431.42 66.286 429.468 66.6676 427.295L88.6847 427.428C88.303 431.42 87.1435 435.354 85.206 439.229C83.2978 443.104 80.6705 446.641 77.3239 449.841C73.9773 453.011 69.8968 455.536 65.0824 457.415C60.2974 459.294 54.8078 460.233 48.6136 460.233C40.4527 460.233 33.143 458.442 26.6847 454.861C20.2557 451.25 15.1771 445.995 11.4489 439.097C7.72064 432.198 5.85653 423.802 5.85653 413.909C5.85653 403.987 7.75 395.576 11.5369 388.678C15.3239 381.779 20.4465 376.539 26.9048 372.957C33.3632 369.376 40.5994 367.585 48.6136 367.585C54.0739 367.585 59.1231 368.348 63.7614 369.875C68.3996 371.372 72.4801 373.574 76.0028 376.48C79.5256 379.357 82.3878 382.894 84.5895 387.092C86.7912 391.29 88.1562 396.09 88.6847 401.491ZM144.795 429.805V391.364H166.284V459H145.764V446.406H145.059C143.562 450.545 141.008 453.833 137.397 456.27C133.816 458.677 129.486 459.881 124.407 459.881C119.798 459.881 115.747 458.824 112.254 456.71C108.761 454.597 106.045 451.646 104.108 447.859C102.17 444.043 101.187 439.581 101.157 434.473V391.364H122.69V430.246C122.719 433.915 123.688 436.807 125.596 438.92C127.504 441.034 130.102 442.091 133.39 442.091C135.533 442.091 137.456 441.621 139.159 440.682C140.891 439.713 142.256 438.319 143.254 436.499C144.281 434.649 144.795 432.418 144.795 429.805ZM239.039 412.016L219.268 412.544C219.062 411.135 218.504 409.887 217.594 408.801C216.684 407.686 215.496 406.82 214.028 406.203C212.589 405.557 210.916 405.234 209.008 405.234C206.513 405.234 204.384 405.733 202.623 406.732C200.891 407.73 200.04 409.08 200.069 410.783C200.04 412.104 200.568 413.249 201.654 414.217C202.77 415.186 204.751 415.964 207.599 416.551L220.633 419.017C227.385 420.309 232.405 422.452 235.692 425.446C239.01 428.44 240.683 432.403 240.712 437.335C240.683 441.973 239.303 446.01 236.573 449.445C233.872 452.879 230.174 455.551 225.477 457.459C220.78 459.338 215.407 460.277 209.36 460.277C199.702 460.277 192.084 458.295 186.506 454.332C180.958 450.34 177.788 444.997 176.995 438.304L198.263 437.776C198.733 440.241 199.951 442.12 201.918 443.412C203.885 444.704 206.395 445.349 209.448 445.349C212.208 445.349 214.453 444.836 216.185 443.808C217.917 442.781 218.798 441.416 218.827 439.713C218.798 438.187 218.123 436.968 216.802 436.058C215.481 435.119 213.411 434.385 210.593 433.857L198.792 431.611C192.011 430.378 186.961 428.103 183.644 424.786C180.327 421.439 178.683 417.182 178.712 412.016C178.683 407.495 179.887 403.634 182.323 400.435C184.76 397.205 188.224 394.74 192.715 393.037C197.207 391.334 202.505 390.483 208.612 390.483C217.771 390.483 224.992 392.406 230.276 396.251C235.56 400.068 238.481 405.322 239.039 412.016ZM289.491 391.364V407.216H246.822V391.364H289.491ZM255.761 375.159H277.294V437.732C277.294 439.053 277.499 440.124 277.91 440.946C278.35 441.739 278.982 442.311 279.804 442.663C280.626 442.986 281.609 443.148 282.754 443.148C283.576 443.148 284.442 443.074 285.352 442.928C286.291 442.751 286.996 442.605 287.466 442.487L290.724 458.031C289.697 458.325 288.243 458.692 286.365 459.132C284.515 459.572 282.299 459.851 279.716 459.969C274.666 460.204 270.336 459.616 266.725 458.207C263.144 456.769 260.399 454.538 258.491 451.514C256.612 448.491 255.702 444.689 255.761 440.109V375.159ZM331.324 460.277C324.219 460.277 318.113 458.824 313.005 455.918C307.927 452.982 304.008 448.902 301.248 443.676C298.518 438.421 297.153 432.33 297.153 425.402C297.153 418.445 298.518 412.353 301.248 407.128C304.008 401.873 307.927 397.793 313.005 394.886C318.113 391.951 324.219 390.483 331.324 390.483C338.428 390.483 344.519 391.951 349.598 394.886C354.706 397.793 358.625 401.873 361.355 407.128C364.114 412.353 365.494 418.445 365.494 425.402C365.494 432.33 364.114 438.421 361.355 443.676C358.625 448.902 354.706 452.982 349.598 455.918C344.519 458.824 338.428 460.277 331.324 460.277ZM331.456 444.028C334.039 444.028 336.226 443.236 338.017 441.651C339.807 440.065 341.172 437.864 342.112 435.045C343.081 432.227 343.565 428.969 343.565 425.27C343.565 421.512 343.081 418.224 342.112 415.406C341.172 412.588 339.807 410.386 338.017 408.801C336.226 407.216 334.039 406.423 331.456 406.423C328.784 406.423 326.524 407.216 324.674 408.801C322.854 410.386 321.46 412.588 320.491 415.406C319.552 418.224 319.082 421.512 319.082 425.27C319.082 428.969 319.552 432.227 320.491 435.045C321.46 437.864 322.854 440.065 324.674 441.651C326.524 443.236 328.784 444.028 331.456 444.028ZM376.525 459V391.364H397V403.781H397.749C399.158 399.671 401.536 396.428 404.882 394.05C408.229 391.672 412.221 390.483 416.86 390.483C421.557 390.483 425.578 391.687 428.925 394.094C432.272 396.501 434.4 399.73 435.31 403.781H436.015C437.277 399.759 439.743 396.545 443.412 394.138C447.082 391.701 451.412 390.483 456.402 390.483C462.802 390.483 467.998 392.538 471.99 396.648C475.983 400.728 477.979 406.335 477.979 413.469V459H456.446V418.401C456.446 415.025 455.58 412.456 453.848 410.695C452.116 408.904 449.871 408.009 447.111 408.009C444.146 408.009 441.812 408.977 440.11 410.915C438.436 412.823 437.6 415.392 437.6 418.621V459H416.904V418.18C416.904 415.039 416.052 412.559 414.35 410.739C412.647 408.919 410.401 408.009 407.613 408.009C405.734 408.009 404.075 408.464 402.637 409.374C401.198 410.254 400.068 411.517 399.246 413.161C398.453 414.804 398.057 416.742 398.057 418.973V459H376.525ZM491.321 459V391.364H512.854V459H491.321ZM502.11 383.482C499.086 383.482 496.488 382.483 494.316 380.487C492.143 378.462 491.057 376.025 491.057 373.178C491.057 370.359 492.143 367.952 494.316 365.956C496.488 363.93 499.086 362.918 502.11 362.918C505.163 362.918 507.761 363.93 509.904 365.956C512.076 367.952 513.162 370.359 513.162 373.178C513.162 376.025 512.076 378.462 509.904 380.487C507.761 382.483 505.163 383.482 502.11 383.482ZM585.609 412.016L565.838 412.544C565.633 411.135 565.075 409.887 564.165 408.801C563.255 407.686 562.066 406.82 560.598 406.203C559.16 405.557 557.486 405.234 555.578 405.234C553.083 405.234 550.955 405.733 549.193 406.732C547.461 407.73 546.61 409.08 546.639 410.783C546.61 412.104 547.138 413.249 548.224 414.217C549.34 415.186 551.321 415.964 554.169 416.551L567.203 419.017C573.955 420.309 578.975 422.452 582.263 425.446C585.58 428.44 587.253 432.403 587.283 437.335C587.253 441.973 585.874 446.01 583.143 449.445C580.443 452.879 576.744 455.551 572.047 457.459C567.35 459.338 561.978 460.277 555.93 460.277C546.272 460.277 538.654 458.295 533.077 454.332C527.528 450.34 524.358 444.997 523.565 438.304L544.834 437.776C545.304 440.241 546.522 442.12 548.489 443.412C550.455 444.704 552.965 445.349 556.018 445.349C558.778 445.349 561.024 444.836 562.756 443.808C564.488 442.781 565.368 441.416 565.398 439.713C565.368 438.187 564.693 436.968 563.372 436.058C562.051 435.119 559.982 434.385 557.163 433.857L545.362 431.611C538.581 430.378 533.532 428.103 530.214 424.786C526.897 421.439 525.253 417.182 525.283 412.016C525.253 407.495 526.457 403.634 528.893 400.435C531.33 397.205 534.794 394.74 539.286 393.037C543.777 391.334 549.076 390.483 555.182 390.483C564.341 390.483 571.563 392.406 576.847 396.251C582.131 400.068 585.052 405.322 585.609 412.016ZM629.5 460.277C622.426 460.277 616.319 458.883 611.182 456.094C606.074 453.276 602.141 449.268 599.381 444.072C596.651 438.847 595.286 432.638 595.286 425.446C595.286 418.459 596.666 412.353 599.425 407.128C602.185 401.873 606.074 397.793 611.094 394.886C616.114 391.951 622.029 390.483 628.84 390.483C633.654 390.483 638.058 391.232 642.05 392.729C646.042 394.226 649.492 396.442 652.398 399.378C655.304 402.313 657.565 405.939 659.179 410.254C660.794 414.54 661.601 419.457 661.601 425.006V430.378H602.816V417.872H641.566C641.536 415.582 640.993 413.542 639.936 411.751C638.88 409.961 637.426 408.566 635.577 407.568C633.757 406.541 631.658 406.027 629.28 406.027C626.873 406.027 624.715 406.57 622.807 407.656C620.899 408.713 619.387 410.166 618.272 412.016C617.156 413.836 616.569 415.905 616.51 418.224V430.95C616.51 433.71 617.053 436.132 618.14 438.216C619.226 440.271 620.767 441.871 622.763 443.016C624.759 444.161 627.137 444.733 629.897 444.733C631.805 444.733 633.537 444.469 635.093 443.94C636.649 443.412 637.984 442.634 639.1 441.607C640.215 440.579 641.052 439.317 641.61 437.82L661.381 438.392C660.559 442.825 658.754 446.685 655.965 449.973C653.205 453.232 649.58 455.771 645.088 457.591C640.597 459.382 635.401 460.277 629.5 460.277ZM697.302 459.969C692.311 459.969 687.776 458.677 683.695 456.094C679.615 453.51 676.356 449.635 673.92 444.469C671.483 439.302 670.265 432.888 670.265 425.226C670.265 417.27 671.527 410.724 674.052 405.587C676.576 400.449 679.879 396.648 683.96 394.182C688.069 391.716 692.487 390.483 697.214 390.483C700.766 390.483 703.804 391.099 706.329 392.332C708.853 393.536 710.938 395.092 712.582 397C714.226 398.908 715.473 400.89 716.325 402.945H716.765V368.818H738.298V459H716.985V448.036H716.325C715.415 450.12 714.123 452.072 712.45 453.892C710.776 455.712 708.677 457.18 706.153 458.295C703.657 459.411 700.707 459.969 697.302 459.969ZM704.788 443.192C707.4 443.192 709.631 442.458 711.481 440.99C713.33 439.493 714.754 437.394 715.752 434.693C716.75 431.992 717.249 428.822 717.249 425.182C717.249 421.483 716.75 418.298 715.752 415.626C714.783 412.955 713.36 410.9 711.481 409.462C709.631 408.023 707.4 407.304 704.788 407.304C702.116 407.304 699.856 408.038 698.006 409.506C696.157 410.973 694.748 413.043 693.779 415.714C692.84 418.386 692.37 421.542 692.37 425.182C692.37 428.822 692.854 431.992 693.823 434.693C694.792 437.394 696.186 439.493 698.006 440.99C699.856 442.458 702.116 443.192 704.788 443.192Z" fill="#02439C"/>
<path d="M751.915 459V368.818H789.168C795.92 368.818 801.747 370.139 806.65 372.781C811.581 375.394 815.383 379.049 818.054 383.746C820.726 388.413 822.061 393.844 822.061 400.038C822.061 406.262 820.696 411.707 817.966 416.375C815.266 421.013 811.405 424.609 806.385 427.163C801.365 429.717 795.406 430.994 788.507 430.994H765.522V413.821H784.456C787.744 413.821 790.489 413.249 792.691 412.104C794.922 410.959 796.61 409.359 797.755 407.304C798.9 405.22 799.472 402.798 799.472 400.038C799.472 397.25 798.9 394.842 797.755 392.817C796.61 390.762 794.922 389.177 792.691 388.061C790.46 386.946 787.715 386.388 784.456 386.388H773.712V459H751.915ZM849.451 460.145C845.135 460.145 841.304 459.426 837.958 457.987C834.641 456.519 832.013 454.318 830.076 451.382C828.167 448.417 827.213 444.704 827.213 440.241C827.213 436.484 827.874 433.313 829.195 430.73C830.516 428.147 832.336 426.048 834.655 424.433C836.974 422.819 839.646 421.6 842.669 420.778C845.693 419.927 848.922 419.355 852.357 419.061C856.203 418.709 859.3 418.342 861.648 417.96C863.997 417.549 865.699 416.977 866.756 416.243C867.842 415.48 868.385 414.408 868.385 413.028V412.808C868.385 410.548 867.607 408.801 866.051 407.568C864.496 406.335 862.397 405.719 859.755 405.719C856.907 405.719 854.617 406.335 852.885 407.568C851.153 408.801 850.052 410.504 849.583 412.676L829.723 411.972C830.31 407.862 831.822 404.192 834.259 400.963C836.725 397.705 840.101 395.151 844.387 393.301C848.702 391.422 853.883 390.483 859.931 390.483C864.246 390.483 868.224 390.997 871.864 392.024C875.504 393.022 878.675 394.49 881.375 396.428C884.076 398.336 886.16 400.684 887.628 403.473C889.125 406.262 889.874 409.447 889.874 413.028V459H869.618V449.577H869.09C867.886 451.866 866.345 453.804 864.466 455.389C862.617 456.974 860.43 458.163 857.905 458.956C855.41 459.749 852.592 460.145 849.451 460.145ZM856.1 446.054C858.419 446.054 860.503 445.584 862.353 444.645C864.231 443.705 865.729 442.414 866.844 440.77C867.96 439.097 868.517 437.159 868.517 434.957V428.528C867.901 428.851 867.152 429.145 866.272 429.409C865.42 429.673 864.481 429.923 863.453 430.158C862.426 430.393 861.369 430.598 860.283 430.774C859.197 430.95 858.155 431.112 857.157 431.259C855.131 431.581 853.399 432.08 851.961 432.756C850.551 433.431 849.465 434.312 848.702 435.398C847.968 436.455 847.601 437.717 847.601 439.185C847.601 441.416 848.394 443.118 849.979 444.293C851.594 445.467 853.634 446.054 856.1 446.054ZM941.218 391.364V407.216H898.549V391.364H941.218ZM907.488 375.159H929.02V437.732C929.02 439.053 929.226 440.124 929.637 440.946C930.077 441.739 930.708 442.311 931.53 442.663C932.352 442.986 933.336 443.148 934.48 443.148C935.302 443.148 936.168 443.074 937.078 442.928C938.018 442.751 938.722 442.605 939.192 442.487L942.451 458.031C941.423 458.325 939.97 458.692 938.091 459.132C936.242 459.572 934.025 459.851 931.442 459.969C926.393 460.204 922.063 459.616 918.452 458.207C914.871 456.769 912.126 454.538 910.218 451.514C908.339 448.491 907.429 444.689 907.488 440.109V375.159ZM990.382 391.364V407.216H947.713V391.364H990.382ZM956.652 375.159H978.184V437.732C978.184 439.053 978.39 440.124 978.801 440.946C979.241 441.739 979.872 442.311 980.694 442.663C981.516 442.986 982.5 443.148 983.645 443.148C984.467 443.148 985.333 443.074 986.243 442.928C987.182 442.751 987.886 442.605 988.356 442.487L991.615 458.031C990.587 458.325 989.134 458.692 987.255 459.132C985.406 459.572 983.19 459.851 980.606 459.969C975.557 460.204 971.227 459.616 967.616 458.207C964.035 456.769 961.29 454.538 959.382 451.514C957.503 448.491 956.593 444.689 956.652 440.109V375.159ZM1032.26 460.277C1025.18 460.277 1019.08 458.883 1013.94 456.094C1008.83 453.276 1004.9 449.268 1002.14 444.072C999.409 438.847 998.044 432.638 998.044 425.446C998.044 418.459 999.423 412.353 1002.18 407.128C1004.94 401.873 1008.83 397.793 1013.85 394.886C1018.87 391.951 1024.79 390.483 1031.6 390.483C1036.41 390.483 1040.82 391.232 1044.81 392.729C1048.8 394.226 1052.25 396.442 1055.16 399.378C1058.06 402.313 1060.32 405.939 1061.94 410.254C1063.55 414.54 1064.36 419.457 1064.36 425.006V430.378H1005.57V417.872H1044.32C1044.29 415.582 1043.75 413.542 1042.69 411.751C1041.64 409.961 1040.18 408.566 1038.33 407.568C1036.51 406.541 1034.42 406.027 1032.04 406.027C1029.63 406.027 1027.47 406.57 1025.56 407.656C1023.66 408.713 1022.15 410.166 1021.03 412.016C1019.91 413.836 1019.33 415.905 1019.27 418.224V430.95C1019.27 433.71 1019.81 436.132 1020.9 438.216C1021.98 440.271 1023.52 441.871 1025.52 443.016C1027.52 444.161 1029.9 444.733 1032.65 444.733C1034.56 444.733 1036.29 444.469 1037.85 443.94C1039.41 443.412 1040.74 442.634 1041.86 441.607C1042.97 440.579 1043.81 439.317 1044.37 437.82L1064.14 438.392C1063.32 442.825 1061.51 446.685 1058.72 449.973C1055.96 453.232 1052.34 455.771 1047.85 457.591C1043.35 459.382 1038.16 460.277 1032.26 460.277ZM1075.36 459V391.364H1096.27V403.693H1096.98C1098.21 399.231 1100.22 395.914 1103.01 393.741C1105.8 391.54 1109.04 390.439 1112.74 390.439C1113.74 390.439 1114.77 390.512 1115.82 390.659C1116.88 390.777 1117.86 390.967 1118.77 391.232V409.946C1117.75 409.594 1116.4 409.315 1114.72 409.109C1113.08 408.904 1111.61 408.801 1110.32 408.801C1107.77 408.801 1105.46 409.374 1103.41 410.518C1101.38 411.634 1099.78 413.205 1098.61 415.23C1097.46 417.226 1096.89 419.575 1096.89 422.276V459H1075.36ZM1149.08 420.426V459H1127.55V391.364H1148.02V403.781H1148.77C1150.27 399.642 1152.82 396.398 1156.43 394.05C1160.05 391.672 1164.35 390.483 1169.34 390.483C1174.09 390.483 1178.22 391.554 1181.71 393.697C1185.23 395.811 1187.96 398.776 1189.9 402.592C1191.87 406.379 1192.84 410.812 1192.81 415.891V459H1171.27V420.118C1171.3 416.36 1170.35 413.425 1168.41 411.311C1166.5 409.197 1163.85 408.141 1160.44 408.141C1158.18 408.141 1156.18 408.64 1154.45 409.638C1152.75 410.607 1151.43 412.001 1150.49 413.821C1149.58 415.641 1149.11 417.843 1149.08 420.426ZM1265.19 412.016L1245.42 412.544C1245.21 411.135 1244.65 409.887 1243.74 408.801C1242.83 407.686 1241.64 406.82 1240.18 406.203C1238.74 405.557 1237.06 405.234 1235.16 405.234C1232.66 405.234 1230.53 405.733 1228.77 406.732C1227.04 407.73 1226.19 409.08 1226.22 410.783C1226.19 412.104 1226.72 413.249 1227.8 414.217C1228.92 415.186 1230.9 415.964 1233.75 416.551L1246.78 419.017C1253.53 420.309 1258.55 422.452 1261.84 425.446C1265.16 428.44 1266.83 432.403 1266.86 437.335C1266.83 441.973 1265.45 446.01 1262.72 449.445C1260.02 452.879 1256.32 455.551 1251.62 457.459C1246.93 459.338 1241.56 460.277 1235.51 460.277C1225.85 460.277 1218.23 458.295 1212.65 454.332C1207.11 450.34 1203.94 444.997 1203.14 438.304L1224.41 437.776C1224.88 440.241 1226.1 442.12 1228.07 443.412C1230.03 444.704 1232.54 445.349 1235.6 445.349C1238.36 445.349 1240.6 444.836 1242.33 443.808C1244.07 442.781 1244.95 441.416 1244.98 439.713C1244.95 438.187 1244.27 436.968 1242.95 436.058C1241.63 435.119 1239.56 434.385 1236.74 433.857L1224.94 431.611C1218.16 430.378 1213.11 428.103 1209.79 424.786C1206.48 421.439 1204.83 417.182 1204.86 412.016C1204.83 407.495 1206.04 403.634 1208.47 400.435C1210.91 397.205 1214.37 394.74 1218.86 393.037C1223.36 391.334 1228.65 390.483 1234.76 390.483C1243.92 390.483 1251.14 392.406 1256.42 396.251C1261.71 400.068 1264.63 405.322 1265.19 412.016Z" fill="#C20D12"/>
<path d="M56.2287 480.909V542H46.3849L17.5994 500.388H17.0923V542H6.02557V480.909H15.929L44.6847 522.551H45.2216V480.909H56.2287ZM79.354 480.909V542H68.2873V480.909H79.354ZM132.264 500.418C131.767 498.807 131.081 497.365 130.206 496.092C129.351 494.8 128.317 493.696 127.104 492.781C125.911 491.866 124.538 491.18 122.987 490.723C121.436 490.246 119.746 490.007 117.916 490.007C114.635 490.007 111.712 490.832 109.146 492.483C106.581 494.134 104.563 496.56 103.091 499.761C101.639 502.943 100.913 506.821 100.913 511.395C100.913 516.009 101.639 519.916 103.091 523.118C104.543 526.32 106.561 528.756 109.146 530.426C111.732 532.077 114.734 532.902 118.155 532.902C121.257 532.902 123.942 532.305 126.209 531.112C128.496 529.919 130.256 528.229 131.489 526.041C132.722 523.834 133.338 521.249 133.338 518.286L135.844 518.673H119.259V510.023H144.047V517.361C144.047 522.591 142.933 527.115 140.706 530.933C138.479 534.751 135.416 537.695 131.518 539.763C127.621 541.811 123.146 542.835 118.095 542.835C112.467 542.835 107.526 541.572 103.27 539.047C99.0341 536.501 95.723 532.892 93.3366 528.219C90.9702 523.526 89.7869 517.957 89.7869 511.514C89.7869 506.582 90.483 502.178 91.875 498.3C93.2869 494.422 95.2557 491.131 97.7812 488.426C100.307 485.702 103.27 483.634 106.67 482.222C110.071 480.79 113.77 480.074 117.767 480.074C121.148 480.074 124.3 480.571 127.223 481.565C130.146 482.54 132.741 483.932 135.009 485.741C137.295 487.551 139.175 489.699 140.646 492.185C142.118 494.67 143.082 497.415 143.54 500.418H132.264ZM175.584 542V480.909H186.651V532.723H213.557V542H175.584ZM212.685 490.186V480.909H261.426V490.186H242.544V542H231.567V490.186H212.685ZM291.524 542H270.822V480.909H291.942C298.007 480.909 303.217 482.132 307.572 484.578C311.947 487.004 315.308 490.494 317.655 495.048C320.001 499.602 321.175 505.051 321.175 511.395C321.175 517.759 319.991 523.227 317.625 527.801C315.278 532.375 311.888 535.885 307.453 538.331C303.038 540.777 297.729 542 291.524 542ZM281.889 532.425H290.987C295.243 532.425 298.793 531.649 301.636 530.098C304.48 528.527 306.618 526.19 308.05 523.088C309.482 519.966 310.197 516.068 310.197 511.395C310.197 506.722 309.482 502.844 308.05 499.761C306.618 496.659 304.5 494.342 301.696 492.811C298.912 491.26 295.452 490.484 291.315 490.484H281.889V532.425Z" fill="#02439C"/>
<path d="M337.864 542.656C336.055 542.656 334.504 542.02 333.211 540.747C331.918 539.474 331.282 537.923 331.302 536.094C331.282 534.304 331.918 532.773 333.211 531.5C334.504 530.227 336.055 529.591 337.864 529.591C339.614 529.591 341.136 530.227 342.428 531.5C343.741 532.773 344.407 534.304 344.427 536.094C344.407 537.307 344.089 538.411 343.472 539.405C342.876 540.399 342.08 541.195 341.086 541.791C340.112 542.368 339.038 542.656 337.864 542.656ZM372.42 542V507.091H385.511C388.192 507.091 390.442 507.557 392.261 508.489C394.09 509.42 395.471 510.727 396.403 512.409C397.346 514.08 397.817 516.028 397.817 518.256C397.817 520.494 397.34 522.437 396.386 524.085C395.442 525.722 394.05 526.989 392.21 527.886C390.369 528.773 388.107 529.216 385.425 529.216H376.102V523.966H384.573C386.141 523.966 387.425 523.75 388.425 523.318C389.425 522.875 390.164 522.233 390.641 521.392C391.13 520.54 391.374 519.494 391.374 518.256C391.374 517.017 391.13 515.96 390.641 515.085C390.153 514.199 389.408 513.528 388.408 513.074C387.408 512.608 386.119 512.375 384.539 512.375H378.744V542H372.42ZM390.454 526.182L399.096 542H392.039L383.55 526.182H390.454ZM433.519 518.869H427.144C426.962 517.824 426.627 516.898 426.138 516.091C425.65 515.273 425.042 514.58 424.315 514.011C423.587 513.443 422.758 513.017 421.826 512.733C420.906 512.438 419.911 512.29 418.843 512.29C416.945 512.29 415.263 512.767 413.798 513.722C412.332 514.665 411.184 516.051 410.354 517.881C409.525 519.699 409.11 521.92 409.11 524.545C409.11 527.216 409.525 529.466 410.354 531.295C411.195 533.114 412.343 534.489 413.798 535.42C415.263 536.341 416.94 536.801 418.826 536.801C419.871 536.801 420.849 536.665 421.758 536.392C422.678 536.108 423.502 535.693 424.229 535.148C424.968 534.602 425.587 533.932 426.087 533.136C426.599 532.341 426.951 531.432 427.144 530.409L433.519 530.443C433.281 532.102 432.763 533.659 431.968 535.114C431.184 536.568 430.156 537.852 428.883 538.966C427.61 540.068 426.121 540.932 424.417 541.557C422.712 542.17 420.82 542.477 418.741 542.477C415.673 542.477 412.934 541.767 410.525 540.347C408.116 538.926 406.218 536.875 404.832 534.193C403.445 531.511 402.752 528.295 402.752 524.545C402.752 520.784 403.451 517.568 404.849 514.898C406.246 512.216 408.15 510.165 410.559 508.744C412.968 507.324 415.695 506.614 418.741 506.614C420.684 506.614 422.491 506.886 424.161 507.432C425.832 507.977 427.32 508.778 428.627 509.835C429.934 510.881 431.008 512.165 431.849 513.688C432.701 515.199 433.258 516.926 433.519 518.869ZM463.285 542.477C460.751 542.477 458.501 542.051 456.535 541.199C454.58 540.347 453.046 539.182 451.933 537.705C450.83 536.216 450.285 534.528 450.296 532.642C450.285 531.176 450.603 529.83 451.251 528.602C451.898 527.375 452.773 526.352 453.876 525.534C454.989 524.705 456.228 524.176 457.592 523.949V523.71C455.796 523.312 454.342 522.398 453.228 520.966C452.126 519.523 451.58 517.858 451.592 515.972C451.58 514.176 452.08 512.574 453.092 511.165C454.103 509.756 455.489 508.648 457.251 507.841C459.012 507.023 461.023 506.614 463.285 506.614C465.523 506.614 467.518 507.023 469.268 507.841C471.029 508.648 472.415 509.756 473.427 511.165C474.45 512.574 474.961 514.176 474.961 515.972C474.961 517.858 474.398 519.523 473.273 520.966C472.16 522.398 470.722 523.312 468.961 523.71V523.949C470.325 524.176 471.552 524.705 472.643 525.534C473.745 526.352 474.62 527.375 475.268 528.602C475.927 529.83 476.256 531.176 476.256 532.642C476.256 534.528 475.7 536.216 474.586 537.705C473.472 539.182 471.938 540.347 469.984 541.199C468.04 542.051 465.808 542.477 463.285 542.477ZM463.285 537.602C464.592 537.602 465.728 537.381 466.694 536.938C467.66 536.483 468.41 535.847 468.944 535.028C469.478 534.21 469.751 533.267 469.762 532.199C469.751 531.085 469.461 530.102 468.893 529.25C468.336 528.386 467.569 527.71 466.592 527.222C465.626 526.733 464.523 526.489 463.285 526.489C462.035 526.489 460.921 526.733 459.944 527.222C458.967 527.71 458.194 528.386 457.626 529.25C457.069 530.102 456.796 531.085 456.808 532.199C456.796 533.267 457.058 534.21 457.592 535.028C458.126 535.835 458.876 536.466 459.842 536.92C460.819 537.375 461.967 537.602 463.285 537.602ZM463.285 521.699C464.353 521.699 465.296 521.483 466.114 521.051C466.944 520.619 467.597 520.017 468.075 519.244C468.552 518.472 468.796 517.58 468.808 516.568C468.796 515.568 468.558 514.693 468.092 513.943C467.626 513.182 466.978 512.597 466.148 512.188C465.319 511.767 464.364 511.557 463.285 511.557C462.183 511.557 461.211 511.767 460.37 512.188C459.54 512.597 458.893 513.182 458.427 513.943C457.972 514.693 457.751 515.568 457.762 516.568C457.751 517.58 457.978 518.472 458.444 519.244C458.921 520.006 459.575 520.608 460.404 521.051C461.245 521.483 462.205 521.699 463.285 521.699ZM494.269 542.477C491.735 542.477 489.485 542.051 487.519 541.199C485.565 540.347 484.031 539.182 482.917 537.705C481.815 536.216 481.269 534.528 481.281 532.642C481.269 531.176 481.587 529.83 482.235 528.602C482.883 527.375 483.758 526.352 484.86 525.534C485.974 524.705 487.212 524.176 488.576 523.949V523.71C486.781 523.312 485.326 522.398 484.212 520.966C483.11 519.523 482.565 517.858 482.576 515.972C482.565 514.176 483.065 512.574 484.076 511.165C485.087 509.756 486.474 508.648 488.235 507.841C489.996 507.023 492.008 506.614 494.269 506.614C496.508 506.614 498.502 507.023 500.252 507.841C502.013 508.648 503.4 509.756 504.411 511.165C505.434 512.574 505.945 514.176 505.945 515.972C505.945 517.858 505.383 519.523 504.258 520.966C503.144 522.398 501.707 523.312 499.945 523.71V523.949C501.309 524.176 502.536 524.705 503.627 525.534C504.729 526.352 505.604 527.375 506.252 528.602C506.911 529.83 507.241 531.176 507.241 532.642C507.241 534.528 506.684 536.216 505.57 537.705C504.457 539.182 502.923 540.347 500.968 541.199C499.025 542.051 496.792 542.477 494.269 542.477ZM494.269 537.602C495.576 537.602 496.712 537.381 497.678 536.938C498.644 536.483 499.394 535.847 499.928 535.028C500.462 534.21 500.735 533.267 500.746 532.199C500.735 531.085 500.445 530.102 499.877 529.25C499.32 528.386 498.553 527.71 497.576 527.222C496.61 526.733 495.508 526.489 494.269 526.489C493.019 526.489 491.906 526.733 490.928 527.222C489.951 527.71 489.178 528.386 488.61 529.25C488.053 530.102 487.781 531.085 487.792 532.199C487.781 533.267 488.042 534.21 488.576 535.028C489.11 535.835 489.86 536.466 490.826 536.92C491.803 537.375 492.951 537.602 494.269 537.602ZM494.269 521.699C495.337 521.699 496.281 521.483 497.099 521.051C497.928 520.619 498.582 520.017 499.059 519.244C499.536 518.472 499.781 517.58 499.792 516.568C499.781 515.568 499.542 514.693 499.076 513.943C498.61 513.182 497.962 512.597 497.133 512.188C496.303 511.767 495.349 511.557 494.269 511.557C493.167 511.557 492.195 511.767 491.354 512.188C490.525 512.597 489.877 513.182 489.411 513.943C488.957 514.693 488.735 515.568 488.746 516.568C488.735 517.58 488.962 518.472 489.428 519.244C489.906 520.006 490.559 520.608 491.388 521.051C492.229 521.483 493.19 521.699 494.269 521.699ZM512.214 535.523V530.494L527.026 507.091H531.219V514.25H528.663L518.691 530.051V530.324H539.367V535.523H512.214ZM528.867 542V533.989L528.935 531.739V507.091H534.901V542H528.867ZM544.183 535.523V530.494L558.995 507.091H563.188V514.25H560.631L550.66 530.051V530.324H571.336V535.523H544.183ZM560.836 542V533.989L560.904 531.739V507.091H566.87V542H560.836ZM589.31 542.477C586.856 542.477 584.674 542.057 582.765 541.216C580.867 540.375 579.367 539.205 578.265 537.705C577.163 536.205 576.577 534.472 576.509 532.506H582.918C582.975 533.449 583.288 534.273 583.856 534.977C584.424 535.67 585.18 536.21 586.123 536.597C587.066 536.983 588.123 537.176 589.293 537.176C590.543 537.176 591.651 536.96 592.617 536.528C593.583 536.085 594.339 535.472 594.884 534.688C595.43 533.903 595.697 533 595.685 531.977C595.697 530.92 595.424 529.989 594.867 529.182C594.31 528.375 593.504 527.744 592.447 527.29C591.401 526.835 590.14 526.608 588.663 526.608H585.577V521.733H588.663C589.879 521.733 590.941 521.523 591.85 521.102C592.771 520.682 593.492 520.091 594.015 519.33C594.538 518.557 594.793 517.665 594.782 516.653C594.793 515.665 594.572 514.807 594.117 514.08C593.674 513.341 593.043 512.767 592.225 512.358C591.418 511.949 590.469 511.744 589.379 511.744C588.31 511.744 587.322 511.937 586.413 512.324C585.504 512.71 584.771 513.261 584.214 513.977C583.657 514.682 583.362 515.523 583.327 516.5H577.242C577.288 514.545 577.85 512.83 578.93 511.352C580.021 509.864 581.475 508.705 583.293 507.875C585.112 507.034 587.151 506.614 589.413 506.614C591.742 506.614 593.765 507.051 595.481 507.926C597.208 508.79 598.543 509.955 599.487 511.42C600.43 512.886 600.901 514.506 600.901 516.278C600.913 518.244 600.333 519.892 599.163 521.222C598.004 522.551 596.481 523.42 594.594 523.83V524.102C597.049 524.443 598.93 525.352 600.237 526.83C601.555 528.295 602.208 530.119 602.197 532.301C602.197 534.256 601.64 536.006 600.526 537.551C599.424 539.085 597.901 540.29 595.958 541.165C594.026 542.04 591.81 542.477 589.31 542.477ZM620.457 542.477C617.923 542.477 615.673 542.051 613.707 541.199C611.752 540.347 610.218 539.182 609.104 537.705C608.002 536.216 607.457 534.528 607.468 532.642C607.457 531.176 607.775 529.83 608.423 528.602C609.07 527.375 609.945 526.352 611.048 525.534C612.161 524.705 613.4 524.176 614.763 523.949V523.71C612.968 523.312 611.513 522.398 610.4 520.966C609.298 519.523 608.752 517.858 608.763 515.972C608.752 514.176 609.252 512.574 610.263 511.165C611.275 509.756 612.661 508.648 614.423 507.841C616.184 507.023 618.195 506.614 620.457 506.614C622.695 506.614 624.69 507.023 626.44 507.841C628.201 508.648 629.587 509.756 630.599 511.165C631.621 512.574 632.133 514.176 632.133 515.972C632.133 517.858 631.57 519.523 630.445 520.966C629.332 522.398 627.894 523.312 626.133 523.71V523.949C627.496 524.176 628.724 524.705 629.815 525.534C630.917 526.352 631.792 527.375 632.44 528.602C633.099 529.83 633.428 531.176 633.428 532.642C633.428 534.528 632.871 536.216 631.758 537.705C630.644 539.182 629.11 540.347 627.156 541.199C625.212 542.051 622.979 542.477 620.457 542.477ZM620.457 537.602C621.763 537.602 622.9 537.381 623.866 536.938C624.832 536.483 625.582 535.847 626.116 535.028C626.65 534.21 626.923 533.267 626.934 532.199C626.923 531.085 626.633 530.102 626.065 529.25C625.508 528.386 624.741 527.71 623.763 527.222C622.798 526.733 621.695 526.489 620.457 526.489C619.207 526.489 618.093 526.733 617.116 527.222C616.138 527.71 615.366 528.386 614.798 529.25C614.241 530.102 613.968 531.085 613.979 532.199C613.968 533.267 614.229 534.21 614.763 535.028C615.298 535.835 616.048 536.466 617.013 536.92C617.991 537.375 619.138 537.602 620.457 537.602ZM620.457 521.699C621.525 521.699 622.468 521.483 623.286 521.051C624.116 520.619 624.769 520.017 625.246 519.244C625.724 518.472 625.968 517.58 625.979 516.568C625.968 515.568 625.729 514.693 625.263 513.943C624.798 513.182 624.15 512.597 623.32 512.188C622.491 511.767 621.536 511.557 620.457 511.557C619.354 511.557 618.383 511.767 617.542 512.188C616.712 512.597 616.065 513.182 615.599 513.943C615.144 514.693 614.923 515.568 614.934 516.568C614.923 517.58 615.15 518.472 615.616 519.244C616.093 520.006 616.746 520.608 617.576 521.051C618.417 521.483 619.377 521.699 620.457 521.699Z" fill="black"/>
</svg>
